# xmcd
#
# Track frame offsets:
#	150
#	23765
#	49758
#	74163
#	99972
#	125765
#	145942
#	171849
#	196374
#	226445
#	255041
#	287963
#	311265
#	336921
#
# Disc length: 4612 seconds
# Revision: 0
# Processed by: cddbd v1.5.2PL0 Copyright (c) Steve Scherf et al.
# Submitted via: dBpowerAMP V12.0
#
DISCID=cb12020e
DTITLE=Black Parents - Diktatè Lanmou
DYEAR=2011
DGENRE=World
TTITLE0=Nou la
TTITLE1=Ki sa m fe Map Payé
TTITLE2=Cheri m Renmen w a vi
TTITLE3=Baby Can You Feel me
TTITLE4=Krazé Chita
TTITLE5=Madanm Pam
TTITLE6=Fè sa ou Vlé Ake m
TTITLE7=Cheri w Banm Kou
TTITLE8=Pa Bat Fanm
TTITLE9=Étanol
TTITLE10=Sové Ayiti
TTITLE11=Crazy Girl
TTITLE12=Ema
TTITLE13=Karnaval (Dans Koulèv La)
EXTD=
EXTT0=
EXTT1=
EXTT2=
EXTT3=
EXTT4=
EXTT5=
EXTT6=
EXTT7=
EXTT8=
EXTT9=
EXTT10=
EXTT11=
EXTT12=
EXTT13=
PLAYORDER=
